<svg xmlns="http://www.w3.org/2000/svg" width="520" height="600" viewBox="0 0 520 600" version="1.1">
	<path d="M 448.816 161.517 C 448.532 161.802, 429.894 167.165, 407.399 173.436 C 384.905 179.707, 362.900 185.948, 358.500 187.306 C 348.459 190.405, 325.377 198.769, 321.838 200.590 C 319.143 201.978, 315 206.548, 315 208.135 C 315 209.470, 319.291 209.162, 324.041 207.486 C 326.402 206.653, 329.140 206.227, 330.126 206.540 C 335.526 208.254, 343.166 223.382, 348.872 243.660 C 355.841 268.428, 357.354 276.258, 359.704 299.705 L 361.449 317.124 358.549 322.663 C 356.954 325.710, 354.603 328.680, 353.324 329.262 C 350.188 330.691, 350.384 331.456, 354.542 334.026 C 358.545 336.500, 359.266 336.440, 372.500 332.534 C 399.826 324.469, 430.826 317.376, 455.718 313.493 L 459.936 312.835 459.484 303.668 C 459.236 298.625, 458.792 287.525, 458.497 279 C 456.270 214.633, 454.949 180.029, 454.385 171.250 C 453.763 161.560, 453.607 161, 451.530 161 C 450.322 161, 449.101 161.233, 448.816 161.517 M 206.241 196.468 C 203.348 197.815, 199.006 200.276, 196.591 201.938 C 194.175 203.599, 186.417 207.518, 179.350 210.645 C 164.855 217.059, 156.018 222.409, 158.405 223.325 C 163.131 225.139, 166.918 241.183, 167.731 262.838 L 168.308 278.175 171.655 272.838 C 173.496 269.902, 175.243 266.375, 175.537 265 C 177.858 254.148, 184.403 238.334, 188.291 234.184 C 189.506 232.886, 197.637 227.562, 206.359 222.351 C 218.334 215.198, 223.579 211.408, 227.772 206.879 C 230.827 203.580, 234.933 200.056, 236.897 199.048 L 240.468 197.216 235.053 195.608 C 231.799 194.642, 226.017 194.004, 220.568 194.010 C 213.058 194.018, 210.596 194.440, 206.241 196.468 M 236.452 254.584 C 233.862 256.426, 229.794 258.677, 227.413 259.586 C 223.883 260.935, 222.111 262.647, 217.811 268.870 C 210.591 279.318, 206.454 283.720, 200 287.820 C 196.975 289.742, 193.043 292.575, 191.263 294.115 C 185.535 299.071, 177.804 299.957, 170.924 296.444 L 168.349 295.129 167.172 313.314 C 165.858 333.618, 164.257 344.117, 160.399 357.744 L 157.783 366.988 160.758 370.377 C 162.395 372.241, 164.047 375.435, 164.429 377.476 C 165.071 380.893, 165.337 381.134, 167.813 380.534 C 172.685 379.353, 178.405 376.084, 185.200 370.598 C 193.399 363.977, 197.254 362.606, 205.925 363.227 C 217.076 364.025, 224.136 369.844, 224.377 378.435 L 224.500 382.835 229.015 382.306 C 235.104 381.593, 240.152 383.846, 243.826 388.918 C 248.055 394.757, 248.663 399.190, 245.858 403.730 C 244.621 405.732, 244.034 407.513, 244.554 407.689 C 247.746 408.766, 252.192 412.376, 253.025 414.566 C 254.381 418.132, 254.243 423.342, 252.750 424.929 C 251.724 426.020, 251.958 426.151, 254.058 425.658 C 261.695 423.867, 270 418.311, 270 414.993 C 270 410.799, 271.047 410, 276.542 410 C 279.472 410, 283.137 409.520, 284.685 408.933 C 291.151 406.484, 295.933 398.895, 295.986 391 L 296.017 386.500 301.696 386.266 C 313.850 385.764, 319.749 379.995, 320.741 367.640 L 321.238 361.444 328.369 361.415 C 337.445 361.377, 344.071 358.632, 346.660 353.838 C 349.183 349.167, 349.205 335.015, 346.698 329.447 C 345.478 326.736, 337.081 317.835, 320.683 301.871 L 296.470 278.299 280.485 270.157 C 263.603 261.557, 255.067 255.974, 254.296 253.024 C 253.890 251.471, 253.378 251.378, 250.340 252.311 C 247.857 253.073, 246.029 253.072, 244.006 252.308 C 241.493 251.360, 240.616 251.624, 236.452 254.584" stroke="none" fill="black" fill-rule="evenodd"/>
</svg>